<svg width="40.000000" height="40.000000" viewBox="0 0 40 40" fill="none" xmlns="http://www.w3.org/2000/svg" xmlns:xlink="http://www.w3.org/1999/xlink">
	<desc>
			Created with Pixso.
	</desc>
	<defs/>
	<rect id="Duotone/Package" width="40.000000" height="40.000000" fill="#FFFFFF" fill-opacity="0"/>
	<path id="Vector" d="M35 12.2969C34.9988 12.0743 34.939 11.8561 34.8265 11.6641C34.714 11.472 34.5529 11.313 34.3594 11.2031L20.6094 3.46875C20.4241 3.36182 20.2139 3.30548 20 3.30548C19.7861 3.30548 19.5759 3.36182 19.3906 3.46875L5.64062 11.2031C5.44711 11.313 5.28598 11.472 5.17352 11.6641C5.06104 11.8561 5.00119 12.0743 5 12.2969L5 27.7031C5.00119 27.9257 5.06104 28.144 5.17352 28.336C5.28598 28.528 5.44711 28.687 5.64062 28.7969L19.3906 36.5312C19.5759 36.6382 19.7861 36.6945 20 36.6945C20.2139 36.6945 20.4241 36.6382 20.6094 36.5312L34.3594 28.7969C34.5529 28.687 34.714 28.528 34.8265 28.336C34.939 28.144 34.9988 27.9257 35 27.7031L35 12.2969Z" stroke="#191C1F" stroke-opacity="1.000000" stroke-width="1.500000" stroke-linejoin="round"/>
	<path id="Vector" d="M27.6562 23.8281L27.6562 15.7031L12.5 7.34375" stroke="#191C1F" stroke-opacity="1.000000" stroke-width="1.500000" stroke-linejoin="round" stroke-linecap="round"/>
	<path id="Vector" d="M34.8281 11.6562L20.1406 20L5.17188 11.6562" stroke="#191C1F" stroke-opacity="1.000000" stroke-width="1.500000" stroke-linejoin="round" stroke-linecap="round"/>
	<path id="Vector" d="M20.1406 20L20 36.6875" stroke="#191C1F" stroke-opacity="1.000000" stroke-width="1.500000" stroke-linejoin="round" stroke-linecap="round"/>
</svg>
