<svg width="40.000000" height="40.000000" viewBox="0 0 40 40" fill="none" xmlns="http://www.w3.org/2000/svg" xmlns:xlink="http://www.w3.org/1999/xlink">
	<desc>
			Created with Pixso.
	</desc>
	<defs/>
	<rect id="Duotone/Trophy" width="40.000000" height="40.000000" fill="#FFFFFF" fill-opacity="0"/>
	<path id="Vector" d="M8.75 17.3594C8.75 23.5625 13.7188 28.7031 19.9219 28.75C21.4058 28.7603 22.8771 28.4769 24.251 27.9162C25.625 27.3554 26.8745 26.5284 27.9274 25.4827C28.9803 24.437 29.816 23.1934 30.3862 21.8233C30.9565 20.4533 31.2501 18.9839 31.25 17.5L31.25 8.75C31.25 8.41846 31.1183 8.10052 30.8839 7.86609C30.6495 7.63171 30.3315 7.5 30 7.5L10 7.5C9.66846 7.5 9.35052 7.63171 9.11609 7.86609C8.88171 8.10052 8.75 8.41846 8.75 8.75L8.75 17.3594Z" stroke="#191C1F" stroke-opacity="1.000000" stroke-width="1.500000" stroke-linejoin="round"/>
	<path id="Vector" d="M15 35L25 35" stroke="#191C1F" stroke-opacity="1.000000" stroke-width="1.500000" stroke-linejoin="round" stroke-linecap="round"/>
	<path id="Vector" d="M20 28.75L20 28.75" stroke="#191C1F" stroke-opacity="1.000000" stroke-width="1.500000" stroke-linejoin="round" stroke-linecap="round"/>
	<path id="Vector" d="M30.9688 20L32.5 20C33.8261 20 35.0978 19.4732 36.0355 18.5355C36.9732 17.5978 37.5 16.3261 37.5 15L37.5 12.5C37.5 12.1685 37.3683 11.8505 37.1339 11.6161C36.8995 11.3817 36.5815 11.25 36.25 11.25L31.25 11.25" stroke="#191C1F" stroke-opacity="1.000000" stroke-width="1.500000" stroke-linejoin="round" stroke-linecap="round"/>
	<path id="Vector" d="M9.0625 20L7.48438 20C6.15826 20 4.88654 19.4732 3.94885 18.5355C3.01117 17.5978 2.48438 16.3261 2.48438 15L2.48438 12.5C2.48438 12.1685 2.61609 11.8505 2.85046 11.6161C3.0849 11.3817 3.40283 11.25 3.73438 11.25L8.73438 11.25" stroke="#191C1F" stroke-opacity="1.000000" stroke-width="1.500000" stroke-linejoin="round" stroke-linecap="round"/>
</svg>
