<svg width="31.734375" height="27.750549" viewBox="0 0 31.7344 27.7505" fill="none" xmlns="http://www.w3.org/2000/svg" xmlns:xlink="http://www.w3.org/1999/xlink">
	<desc>
			Created with Pixso.
	</desc>
	<defs/>
	<path id="Vector" d="M30.9844 15.7505L25.9844 15.7505C25.3213 15.7505 24.6854 16.0139 24.2166 16.4827C23.7478 16.9516 23.4844 17.5875 23.4844 18.2505L23.4844 24.5005C23.4844 25.1636 23.7478 25.7994 24.2166 26.2683C24.6854 26.7371 25.3213 27.0005 25.9844 27.0005L28.4844 27.0005C29.1475 27.0005 29.7833 26.7371 30.2522 26.2683C30.7209 25.7994 30.9844 25.1636 30.9844 24.5005L30.9844 15.7505C30.9845 13.7701 30.5924 11.8093 29.8307 9.98126C29.0691 8.1532 27.953 6.49402 26.5469 5.09949C25.1407 3.70496 23.4724 2.60266 21.6381 1.85626C19.8037 1.1098 17.8397 0.734009 15.8594 0.750549C13.8804 0.736084 11.9181 1.1134 10.0856 1.86078C8.25305 2.60815 6.58643 3.71075 5.18201 5.10504C3.77747 6.49939 2.66284 8.15784 1.90222 9.98486C1.14148 11.812 0.75 13.7715 0.75 15.7505L0.75 24.5005C0.75 25.1636 1.01343 25.7994 1.48218 26.2683C1.95105 26.7371 2.58691 27.0005 3.25 27.0005L5.75 27.0005C6.41309 27.0005 7.04895 26.7371 7.51782 26.2683C7.98657 25.7994 8.25 25.1636 8.25 24.5005L8.25 18.2505C8.25 17.5875 7.98657 16.9516 7.51782 16.4827C7.04895 16.0139 6.41309 15.7505 5.75 15.7505L0.75 15.7505" stroke="#191C1F" stroke-opacity="1.000000" stroke-width="1.500000" stroke-linejoin="round"/>
</svg>
