<svg width="13.000977" height="12.505127" viewBox="0 0 13.001 12.5051" fill="none" xmlns="http://www.w3.org/2000/svg" xmlns:xlink="http://www.w3.org/1999/xlink">
	<desc>
			Created with Pixso.
	</desc>
	<defs/>
	<path id="Vector" d="M6.77551 10.4226L9.92548 12.4226C10.3317 12.679 10.8317 12.2976 10.713 11.8289L9.80048 8.24146C9.77582 8.14209 9.77972 8.0376 9.81183 7.94019C9.84387 7.84302 9.90277 7.75659 9.98175 7.69141L12.8068 5.33521C13.1755 5.02881 12.988 4.41016 12.5067 4.37891L8.81921 4.14136C8.71863 4.1355 8.62189 4.10059 8.54089 4.04053C8.45984 3.98071 8.39801 3.89844 8.36298 3.80396L6.98798 0.341309C6.9516 0.241455 6.88525 0.155029 6.7981 0.09375C6.71088 0.0327148 6.60693 0 6.50049 0C6.39398 0 6.2901 0.0327148 6.20288 0.09375C6.11566 0.155029 6.04938 0.241455 6.013 0.341309L4.638 3.80396C4.60297 3.89844 4.54114 3.98071 4.46008 4.04053C4.37909 4.10059 4.28235 4.1355 4.18176 4.14136L0.494263 4.37891C0.0130005 4.41016 -0.1745 5.02881 0.194214 5.33521L3.01923 7.69141C3.09821 7.75659 3.1571 7.84302 3.18915 7.94019C3.22125 8.0376 3.22516 8.14209 3.2005 8.24146L2.35675 11.5664C2.21301 12.1289 2.81299 12.5852 3.29425 12.2788L6.22546 10.4226C6.30768 10.3704 6.40308 10.3425 6.50049 10.3425C6.5979 10.3425 6.6933 10.3704 6.77551 10.4226Z" fill="#FFFFFF" fill-opacity="1.000000" fill-rule="nonzero"/>
	<path id="Vector" d="M6.77551 10.4226L9.92548 12.4226C10.3317 12.679 10.8317 12.2976 10.713 11.8289L9.80048 8.24146C9.77582 8.14209 9.77972 8.0376 9.81183 7.94019C9.84387 7.84302 9.90277 7.75659 9.98175 7.69141L12.8068 5.33521C13.1755 5.02881 12.988 4.41016 12.5067 4.37891L8.81921 4.14136C8.71863 4.1355 8.62189 4.10059 8.54089 4.04053C8.45984 3.98071 8.39801 3.89844 8.36298 3.80396L6.98798 0.341309C6.9516 0.241455 6.88525 0.155029 6.7981 0.09375C6.71088 0.0327148 6.60693 0 6.50049 0C6.39398 0 6.2901 0.0327148 6.20288 0.09375C6.11566 0.155029 6.04938 0.241455 6.013 0.341309L4.638 3.80396C4.60297 3.89844 4.54114 3.98071 4.46008 4.04053C4.37909 4.10059 4.28235 4.1355 4.18176 4.14136L0.494263 4.37891C0.0130005 4.41016 -0.1745 5.02881 0.194214 5.33521L3.01923 7.69141C3.09821 7.75659 3.1571 7.84302 3.18915 7.94019C3.22125 8.0376 3.22516 8.14209 3.2005 8.24146L2.35675 11.5664C2.21301 12.1289 2.81299 12.5852 3.29425 12.2788L6.22546 10.4226C6.30768 10.3704 6.40308 10.3425 6.50049 10.3425C6.5979 10.3425 6.6933 10.3704 6.77551 10.4226ZM5.57062 4.16479Q5.49292 4.36914 5.36676 4.53687Q5.23657 4.70996 5.05481 4.84448Q4.87305 4.979 4.66931 5.05273Q4.46558 5.12671 4.23981 5.13965L1.71606 5.30225L3.65973 6.92358Q3.81897 7.05518 3.9342 7.21802Q4.06488 7.40259 4.13892 7.6272Q4.20862 7.83862 4.21661 8.05249Q4.22467 8.26611 4.17108 8.48218L3.54889 10.9341L5.69049 9.57788Q5.87036 9.46338 6.06689 9.40479Q6.27441 9.34253 6.50049 9.34253Q6.72058 9.34253 6.92346 9.40161Q7.12634 9.46069 7.31207 9.57886L9.4549 10.9395L8.83136 8.48804Q8.7724 8.25049 8.78644 8.01733Q8.79828 7.8208 8.86206 7.6272Q8.9317 7.41577 9.05237 7.23926Q9.17297 7.0625 9.34448 6.92065L11.2849 5.30225L8.75494 5.1394Q8.55115 5.12744 8.3645 5.0647Q8.14331 4.99048 7.94617 4.84448Q7.7644 4.71021 7.63422 4.53687Q7.50806 4.36914 7.4303 4.16479L6.50049 1.82324L5.57062 4.16479Z" fill="#ADB7BC" fill-opacity="1.000000" fill-rule="evenodd"/>
</svg>
