<svg width="16.251221" height="15.631348" viewBox="0 0 16.2512 15.6313" fill="none" xmlns="http://www.w3.org/2000/svg" xmlns:xlink="http://www.w3.org/1999/xlink">
	<desc>
			Created with Pixso.
	</desc>
	<defs/>
	<path id="Vector" d="M8.46936 13.0283L12.4069 15.5283C12.9147 15.8486 13.5397 15.3721 13.3912 14.7861L12.2506 10.3018C12.2198 10.1775 12.2247 10.047 12.2647 9.92542C12.3048 9.80371 12.3785 9.69592 12.4772 9.61426L16.0084 6.66895C16.4694 6.28613 16.235 5.5127 15.6334 5.47363L11.024 5.17676C10.8983 5.16943 10.7774 5.12561 10.6761 5.05078C10.5748 4.97583 10.4975 4.87305 10.4537 4.75488L8.73499 0.426758C8.68948 0.301758 8.6066 0.193604 8.49759 0.11731C8.38858 0.0410156 8.2587 0 8.12561 0C7.99252 0 7.86264 0.0410156 7.75363 0.11731C7.64462 0.193604 7.56174 0.301758 7.51624 0.426758L5.79749 4.75488C5.75366 4.87305 5.67642 4.97583 5.57513 5.05078C5.47385 5.12561 5.35294 5.16943 5.22717 5.17676L0.617798 5.47363C0.0162354 5.5127 -0.21814 6.28613 0.242798 6.66895L3.77405 9.61426C3.87274 9.69592 3.94638 9.80371 3.98645 9.92542C4.02655 10.047 4.03146 10.1775 4.00061 10.3018L2.94592 14.458C2.76624 15.1611 3.51624 15.7314 4.1178 15.3486L7.78186 13.0283C7.88461 12.963 8.00385 12.9283 8.12561 12.9283C8.24738 12.9283 8.36661 12.963 8.46936 13.0283Z" fill="#EBC80C" fill-opacity="1.000000" fill-rule="nonzero"/>
</svg>
