<svg width="40.000000" height="40.000000" viewBox="0 0 40 40" fill="none" xmlns="http://www.w3.org/2000/svg" xmlns:xlink="http://www.w3.org/1999/xlink">
	<desc>
			Created with Pixso.
	</desc>
	<defs>
		<clipPath id="clip47_5831">
			<rect id="mastercard-2 1" width="40.000000" height="40.000000" fill="white" fill-opacity="0"/>
		</clipPath>
	</defs>
	<rect id="mastercard-2 1" width="40.000000" height="40.000000" fill="#FFFFFF" fill-opacity="0"/>
	<g clip-path="url(#clip47_5831)">
		<path id="Vector" d="M39.2118 35.0801L39.2118 35.1582L39.2864 35.1582C39.3004 35.1602 39.3142 35.1562 39.3263 35.1484C39.3312 35.1465 39.3351 35.1406 39.3378 35.1348C39.3403 35.1309 39.3416 35.125 39.3413 35.1191C39.3416 35.1133 39.3403 35.1074 39.3378 35.1016C39.3351 35.0957 39.3312 35.0918 39.3263 35.0879C39.3143 35.082 39.3004 35.0781 39.2864 35.0781L39.2118 35.0781L39.2118 35.0801ZM39.2871 35.0234C39.3191 35.0215 39.3508 35.0293 39.3767 35.0488C39.3872 35.0566 39.3954 35.0684 39.4009 35.0801C39.4064 35.0918 39.4088 35.1055 39.4082 35.1191C39.4087 35.1309 39.4066 35.1426 39.4023 35.1523C39.3979 35.1641 39.3914 35.1738 39.3829 35.1816C39.3629 35.1992 39.3378 35.209 39.3114 35.2109L39.4114 35.3242L39.3344 35.3242L39.2423 35.2129L39.2125 35.2129L39.2125 35.3242L39.1482 35.3242L39.1482 35.0234L39.2882 35.0234L39.2871 35.0234ZM39.2672 35.4277C39.3009 35.4297 39.3344 35.4219 39.3654 35.4082C39.3953 35.3965 39.4224 35.377 39.4453 35.3555C39.4684 35.332 39.4868 35.3047 39.4995 35.2754C39.5258 35.2129 39.5258 35.1406 39.4995 35.0781C39.4866 35.0488 39.4683 35.0215 39.4453 34.998C39.4224 34.9746 39.3951 34.957 39.3654 34.9434C39.3342 34.9316 39.3008 34.9258 39.2672 34.9258C39.2329 34.9258 39.199 34.9316 39.1671 34.9434C39.1366 34.957 39.1089 34.9746 39.0853 34.998C39.0499 35.0352 39.026 35.0801 39.0166 35.1289C39.0071 35.1797 39.0125 35.2305 39.032 35.2773C39.0442 35.3066 39.0623 35.334 39.0853 35.3574C39.1089 35.3789 39.1366 35.3984 39.1671 35.4102C39.1987 35.4238 39.2328 35.4316 39.2672 35.4316L39.2672 35.4277ZM39.2672 34.8535C39.3551 34.8535 39.4395 34.8867 39.5022 34.9492C39.5323 34.9785 39.5564 35.0137 39.573 35.0527C39.5901 35.0918 39.5989 35.1348 39.5989 35.1777C39.5989 35.2207 39.5901 35.2637 39.573 35.3047C39.556 35.3418 39.532 35.377 39.5022 35.4082C39.4714 35.4375 39.4358 35.4609 39.3967 35.4766C39.3558 35.4941 39.3116 35.5039 39.2672 35.5039C39.2222 35.5039 39.1775 35.4941 39.136 35.4766C39.0964 35.4609 39.0604 35.4375 39.0298 35.4082C38.9999 35.377 38.9762 35.3398 38.96 35.3008C38.9429 35.2617 38.9341 35.2188 38.9341 35.1738C38.9341 35.1309 38.9429 35.0879 38.96 35.0488C38.9764 35.0098 39.0005 34.9746 39.0308 34.9453C39.061 34.9141 39.0972 34.8906 39.137 34.875C39.1785 34.8574 39.2231 34.8496 39.2682 34.8496L39.2672 34.8535ZM8.64319 33.6895C8.64319 33.1133 9.02118 32.6426 9.63898 32.6426C10.2294 32.6426 10.6277 33.0938 10.6277 33.6895C10.6277 34.2832 10.2294 34.7363 9.63898 34.7363C9.02118 34.7363 8.64319 34.2637 8.64319 33.6895ZM11.3008 33.6895L11.3008 32.0527L10.587 32.0527L10.587 32.4512C10.3605 32.1562 10.0172 31.9727 9.55017 31.9727C8.63019 31.9727 7.90814 32.6914 7.90814 33.6895C7.90814 34.6875 8.62976 35.4062 9.55017 35.4062C10.017 35.4062 10.3605 35.2227 10.587 34.9277L10.587 35.3242L11.3 35.3242L11.3 33.6895L11.3008 33.6895ZM35.4192 33.6895C35.4192 33.1133 35.7971 32.6426 36.4152 32.6426C37.0061 32.6426 37.4039 33.0938 37.4039 33.6895C37.4039 34.2832 37.0061 34.7363 36.4152 34.7363C35.7974 34.7363 35.4192 34.2637 35.4192 33.6895ZM38.0775 33.6895L38.0775 30.7402L37.3632 30.7402L37.3632 32.4512C37.1367 32.1562 36.7933 31.9727 36.3264 31.9727C35.4064 31.9727 34.6843 32.6914 34.6843 33.6895C34.6843 34.6875 35.406 35.4062 36.3264 35.4062C36.7933 35.4062 37.1367 35.2227 37.3632 34.9277L37.3632 35.3242L38.0775 35.3242L38.0775 33.6895ZM20.1599 32.6074C20.62 32.6074 20.9154 32.8945 20.9907 33.4004L19.2875 33.4004C19.3638 32.9297 19.6516 32.6074 20.1602 32.6074L20.1599 32.6074ZM20.1743 31.9707C19.2123 31.9707 18.5394 32.668 18.5394 33.6875C18.5394 34.7285 19.2394 35.4043 20.2222 35.4043C20.7166 35.4043 21.1693 35.2812 21.5677 34.9473L21.218 34.4199C20.9427 34.6387 20.5924 34.7617 20.2629 34.7617C19.803 34.7617 19.3842 34.5488 19.2812 33.9609L21.7185 33.9609C21.7256 33.873 21.7328 33.7832 21.7328 33.6875C21.7256 32.668 21.0928 31.9707 20.174 31.9707L20.1743 31.9707ZM28.792 33.6875C28.792 33.1133 29.1699 32.6406 29.7877 32.6406C30.3782 32.6406 30.7766 33.0918 30.7766 33.6875C30.7766 34.2832 30.3782 34.7344 29.7877 34.7344C29.1699 34.7344 28.7917 34.2617 28.7917 33.6875L28.792 33.6875ZM31.4493 33.6875L31.4493 32.0527L30.736 32.0527L30.736 32.4512C30.5088 32.1562 30.1661 31.9727 29.6991 31.9727C28.7792 31.9727 28.0571 32.6914 28.0571 33.6895C28.0571 34.6875 28.7788 35.4062 29.6991 35.4062C30.1661 35.4062 30.5088 35.2227 30.736 34.9277L30.736 35.3242L31.4496 35.3242L31.4496 33.6895L31.4493 33.6875ZM24.761 33.6875C24.761 34.6797 25.4541 35.4043 26.5122 35.4043C27.0066 35.4043 27.3359 35.2949 27.6921 35.0156L27.3494 34.4395C27.0813 34.6328 26.7999 34.7344 26.4894 34.7344C25.9196 34.7285 25.5006 34.3164 25.5006 33.6875C25.5006 33.0586 25.9196 32.6484 26.4894 32.6406C26.7992 32.6406 27.0806 32.7441 27.3494 32.9355L27.6921 32.3613C27.3353 32.0801 27.006 31.9707 26.5122 31.9707C25.4541 31.9707 24.761 32.6953 24.761 33.6875ZM33.963 31.9707C33.5511 31.9707 33.283 32.1621 33.0975 32.4492L33.0975 32.0527L32.3901 32.0527L32.3901 35.3223L33.1047 35.3223L33.1047 33.4902C33.1047 32.9492 33.3381 32.6484 33.8048 32.6484C33.9575 32.6465 34.1093 32.6738 34.2511 32.7305L34.4712 32.0605C34.3131 31.998 34.1072 31.9707 33.9625 31.9707L33.963 31.9707ZM14.8298 32.3125C14.4864 32.0879 14.0132 31.9707 13.4911 31.9707C12.6595 31.9707 12.1241 32.3672 12.1241 33.0176C12.1241 33.5508 12.5228 33.8809 13.2568 33.9824L13.5939 34.0312C13.9854 34.0859 14.1702 34.1875 14.1702 34.373C14.1702 34.625 13.9102 34.7695 13.4219 34.7695C12.9276 34.7695 12.5707 34.6113 12.3301 34.4277L11.9948 34.9824C12.3862 35.2695 12.8806 35.4062 13.416 35.4062C14.364 35.4062 14.9134 34.9609 14.9134 34.3398C14.9134 33.7637 14.481 33.4629 13.7665 33.3613L13.4302 33.3125C13.1212 33.2715 12.8735 33.2109 12.8735 32.9922C12.8735 32.752 13.1069 32.6094 13.4985 32.6094C13.9175 32.6094 14.3232 32.7656 14.522 32.8887L14.8309 32.3145L14.8298 32.3125ZM24.0399 31.9707C23.6282 31.9707 23.36 32.1641 23.1754 32.4512L23.1754 32.0527L22.468 32.0527L22.468 35.3223L23.1818 35.3223L23.1818 33.4902C23.1818 32.9492 23.4152 32.6484 23.8817 32.6484C24.0345 32.6465 24.1863 32.6738 24.3281 32.7305L24.5482 32.0605C24.3901 31.998 24.1842 31.9707 24.0396 31.9707L24.0399 31.9707ZM17.9488 32.0527L16.7816 32.0527L16.7816 31.0605L16.0599 31.0605L16.0599 32.0527L15.3942 32.0527L15.3942 32.7031L16.0599 32.7031L16.0599 34.1953C16.0599 34.9531 16.3556 35.4043 17.2 35.4043C17.5098 35.4043 17.8666 35.3086 18.093 35.1523L17.8868 34.543C17.6738 34.666 17.4404 34.7285 17.2548 34.7285C16.8979 34.7285 16.7816 34.5098 16.7816 34.1816L16.7816 32.7031L17.9488 32.7031L17.9488 32.0527ZM7.27698 35.3242L7.27698 33.2715C7.27698 32.498 6.78259 31.9785 5.9856 31.9727C5.56659 31.9648 5.13434 32.0957 4.83179 32.5527C4.60535 32.1914 4.2486 31.9727 3.74695 31.9727C3.39636 31.9727 3.05377 32.0742 2.78558 32.457L2.78558 32.0527L2.07117 32.0527L2.07117 35.3223L2.79114 35.3223L2.79114 33.5098C2.79114 32.9414 3.10718 32.6406 3.59515 32.6406C4.06915 32.6406 4.30896 32.9492 4.30896 33.502L4.30896 35.3223L5.03058 35.3223L5.03058 33.5098C5.03058 32.9414 5.35999 32.6406 5.83374 32.6406C6.32117 32.6406 6.55377 32.9473 6.55377 33.502L6.55377 35.3223L7.27698 35.3242Z" fill="#FFFFFF" fill-opacity="1.000000" fill-rule="nonzero"/>
		<path id="Vector" d="M39.6188 24.4473L39.6188 23.9688L39.4938 23.9688L39.3492 24.2969L39.2054 23.9688L39.0801 23.9688L39.0801 24.4473L39.1688 24.4473L39.1688 24.0859L39.3041 24.3984L39.396 24.3984L39.5312 24.0859L39.5312 24.4473L39.6193 24.4473L39.6188 24.4473ZM38.8258 24.4473L38.8258 24.0508L38.9858 24.0508L38.9858 23.9707L38.577 23.9707L38.577 24.0508L38.7371 24.0508L38.7371 24.4473L38.8251 24.4473L38.8258 24.4473Z" fill="#FFFFFF" fill-opacity="1.000000" fill-rule="nonzero"/>
		<path id="Vector" d="M25.4114 26.498L14.5942 26.498L14.5942 7.13281L25.4116 7.13281L25.4114 26.498Z" fill="#FFFFFF" fill-opacity="0.700000" fill-rule="nonzero"/>
		<path id="Vector" d="M15.28 16.8164C15.28 12.8867 17.1264 9.38867 20.0016 7.13281C17.8252 5.42383 15.1334 4.49609 12.3618 4.5C5.53442 4.5 0 10.0137 0 16.8164C0 23.6172 5.53442 29.1309 12.3618 29.1309C15.1334 29.1348 17.8254 28.207 20.0018 26.498C17.1268 24.2441 15.28 20.7441 15.28 16.8164Z" fill="#FFFFFF" fill-opacity="1.000000" fill-rule="nonzero"/>
		<path id="Vector" d="M40.005 16.8164C40.005 23.6172 34.4706 29.1309 27.6432 29.1309C24.8712 29.1348 22.1791 28.207 20.0022 26.498C22.8782 24.2441 24.7246 20.7441 24.7246 16.8164C24.7246 12.8867 22.8782 9.38867 20.0022 7.13281C22.179 5.42383 24.8711 4.49609 27.6429 4.5C34.4703 4.5 40.0048 10.0137 40.0048 16.8164L40.005 16.8164Z" fill="#FFFFFF" fill-opacity="1.000000" fill-rule="nonzero"/>
	</g>
</svg>
