<svg width="40.000000" height="40.000000" viewBox="0 0 40 40" fill="none" xmlns="http://www.w3.org/2000/svg" xmlns:xlink="http://www.w3.org/1999/xlink">
	<desc>
			Created with Pixso.
	</desc>
	<defs>
		<clipPath id="clip47_5755">
			<rect id="Visa" width="40.000000" height="40.000000" fill="white" fill-opacity="0"/>
		</clipPath>
	</defs>
	<rect id="Visa" width="40.000000" height="40.000000" fill="#FFFFFF" fill-opacity="0"/>
	<g clip-path="url(#clip47_5755)">
		<path id="Vector" d="M17.3403 26.2695L14.0764 26.2695L16.1163 13.7344L19.3806 13.7344L17.3403 26.2695ZM11.3306 13.7344L8.21893 22.3574L7.85071 20.5L7.85107 20.5L6.75281 14.8633C6.75281 14.8633 6.62 13.7344 5.20453 13.7344L0.0603027 13.7344L-6.10352e-05 13.9453C-6.10352e-05 13.9453 1.57306 14.2734 3.41412 15.3789L6.24976 26.2715L9.65051 26.2715L14.8434 13.7344L11.3306 13.7344ZM37.0031 26.2695L40 26.2695L37.387 13.7344L34.7632 13.7344C33.5516 13.7344 33.2565 14.668 33.2565 14.668L28.3887 26.2695L31.7911 26.2695L32.4715 24.4082L36.6207 24.4082L37.0031 26.2695ZM33.4115 21.8359L35.1265 17.1445L36.0912 21.8359L33.4115 21.8359ZM28.6439 16.748L29.1097 14.0566C29.1097 14.0566 27.6724 13.5098 26.1741 13.5098C24.5543 13.5098 20.7079 14.2168 20.7079 17.6602C20.7079 20.8984 25.2224 20.9395 25.2224 22.6406C25.2224 24.3418 21.173 24.0371 19.8367 22.9629L19.3514 25.7793C19.3514 25.7793 20.8088 26.4863 23.0355 26.4863C25.2629 26.4863 28.623 25.334 28.623 22.1953C28.623 18.9355 24.0681 18.6309 24.0681 17.2148C24.0684 15.7969 27.2471 15.9785 28.6439 16.748Z" fill="#FFFFFF" fill-opacity="1.000000" fill-rule="nonzero"/>
		<path id="Vector" d="M7.85107 20.5039L6.75281 14.8652C6.75281 14.8652 6.62 13.7363 5.20447 13.7363L0.0602417 13.7363L-0.00012207 13.9492C-0.00012207 13.9492 2.47241 14.4609 4.84399 16.3809C7.11157 18.2168 7.85107 20.5039 7.85107 20.5039Z" fill="#FFFFFF" fill-opacity="1.000000" fill-rule="nonzero"/>
	</g>
</svg>
