<svg width="24.000000" height="24.000000" viewBox="0 0 24 24" fill="none" xmlns="http://www.w3.org/2000/svg" xmlns:xlink="http://www.w3.org/1999/xlink">
	<desc>
			Created with Pixso.
	</desc>
	<defs/>
	<rect width="24.000000" height="24.000000" fill="#FFFFFF" fill-opacity="0"/>
	<path d="M12 16.5C7.85791 16.5 4.5 13.1426 4.5 9C4.5 4.85742 7.85791 1.5 12 1.5C16.1421 1.5 19.5 4.85742 19.5 9C19.5 13.1426 16.1421 16.5 12 16.5Z" stroke="#FA8232" stroke-opacity="1.000000" stroke-width="1.500000" stroke-linejoin="round"/>
	<path d="M12 13.5C9.51465 13.5 7.5 11.4854 7.5 9C7.5 6.51465 9.51465 4.5 12 4.5C14.4854 4.5 16.5 6.51465 16.5 9C16.5 11.4854 14.4854 13.5 12 13.5Z" stroke="#FA8232" stroke-opacity="1.000000" stroke-width="1.500000" stroke-linejoin="round"/>
	<path d="M16.5 15L16.5 22.5L12 20.25L7.5 22.5L7.5 15" stroke="#FA8232" stroke-opacity="1.000000" stroke-width="1.500000" stroke-linejoin="round" stroke-linecap="round"/>
</svg>
