<svg width="24.000000" height="24.000000" viewBox="0 0 24 24" fill="none" xmlns="http://www.w3.org/2000/svg" xmlns:xlink="http://www.w3.org/1999/xlink">
	<desc>
			Created with Pixso.
	</desc>
	<defs/>
	<rect width="24.000000" height="24.000000" fill="#FFFFFF" fill-opacity="0"/>
	<path d="M20.25 12.5723L17.25 6.83496L19.5938 5.66309C19.7678 5.57422 19.9702 5.55762 20.1562 5.61719C20.3425 5.67676 20.4976 5.80762 20.5874 5.98145L22.8938 10.3975C22.9404 10.4854 22.9692 10.582 22.978 10.6816C22.9868 10.7812 22.9756 10.8818 22.9448 10.9775C22.9143 11.0723 22.865 11.1602 22.7998 11.2363C22.7349 11.3125 22.655 11.374 22.5657 11.4189L20.25 12.5723Z" stroke="#FA8232" stroke-opacity="1.000000" stroke-width="1.500000" stroke-linejoin="round"/>
	<path d="M1.43457 11.3154C1.34521 11.2715 1.26587 11.2109 1.20068 11.1357C1.13574 11.0605 1.08643 10.9727 1.05591 10.8789C1.02515 10.7842 1.01392 10.6846 1.02271 10.5859C1.03125 10.4863 1.05981 10.3906 1.10645 10.3027L3.4126 5.8877C3.50269 5.71387 3.65723 5.58203 3.84277 5.52148C4.02832 5.45996 4.23071 5.47363 4.40625 5.55957L6.75 6.73145L3.75 12.4775L1.43457 11.3154Z" stroke="#FA8232" stroke-opacity="1.000000" stroke-width="1.500000" stroke-linejoin="round"/>
	<path d="M20.25 12.5723L18.75 14.335L15.3 17.7852C15.2061 17.873 15.092 17.9365 14.968 17.9707C14.844 18.0049 14.7134 18.0088 14.5874 17.9814L9.1499 16.6221C9.05078 16.5947 8.95801 16.5469 8.87817 16.4814L3.75 12.4785" stroke="#FA8232" stroke-opacity="1.000000" stroke-width="1.500000" stroke-linejoin="round" stroke-linecap="round"/>
	<path d="M18.75 14.334L14.625 11.334L13.425 12.2344C12.9053 12.6221 12.2739 12.832 11.625 12.832C10.9763 12.832 10.345 12.6221 9.8252 12.2344L9.31885 11.8496C9.23315 11.7842 9.16235 11.7021 9.11108 11.6074C9.05981 11.5127 9.02905 11.4082 9.02124 11.3018C9.01318 11.1943 9.02808 11.0869 9.06494 10.9854C9.10156 10.8848 9.15942 10.792 9.23438 10.7148L12.9094 7.0498C12.9785 6.98047 13.0603 6.92676 13.1504 6.88965C13.2405 6.85254 13.3372 6.83398 13.4346 6.83398L17.25 6.83398" stroke="#FA8232" stroke-opacity="1.000000" stroke-width="1.500000" stroke-linejoin="round" stroke-linecap="round"/>
	<path d="M6.80615 6.73145L11.6155 5.3252C11.7864 5.27637 11.9692 5.28906 12.1311 5.3623L15.375 6.83398" stroke="#FA8232" stroke-opacity="1.000000" stroke-width="1.500000" stroke-linejoin="round" stroke-linecap="round"/>
	<path d="M10.5 19.959L7.67822 19.2471C7.56323 19.2207 7.45654 19.166 7.36865 19.0879L5.25 17.25" stroke="#FA8232" stroke-opacity="1.000000" stroke-width="1.500000" stroke-linejoin="round" stroke-linecap="round"/>
</svg>
