<svg width="24.000000" height="24.000000" viewBox="0 0 24 24" fill="none" xmlns="http://www.w3.org/2000/svg" xmlns:xlink="http://www.w3.org/1999/xlink">
	<desc>
			Created with Pixso.
	</desc>
	<defs/>
	<rect id="Regular/Headphones" width="24.000000" height="24.000000" fill="#FFFFFF" fill-opacity="0"/>
	<path id="Vector" d="M21.1406 12.75L18.1406 12.75C17.7429 12.75 17.3613 12.9082 17.0801 13.1895C16.7986 13.4707 16.6406 13.8525 16.6406 14.25L16.6406 18C16.6406 18.3984 16.7986 18.7793 17.0801 19.0605C17.3613 19.3418 17.7429 19.5 18.1406 19.5L19.6406 19.5C20.0383 19.5 20.4199 19.3418 20.7012 19.0605C20.9827 18.7793 21.1406 18.3984 21.1406 18L21.1406 12.75C21.1406 11.5625 20.9055 10.3857 20.4485 9.28906C19.9915 8.19238 19.3218 7.19629 18.478 6.35938C17.6345 5.52344 16.6333 4.86133 15.5327 4.41406C14.4321 3.96582 13.2539 3.74023 12.0657 3.75C10.8782 3.74121 9.70093 3.96777 8.60132 4.41602C7.50171 4.86523 6.50195 5.52637 5.65918 6.36328C4.81641 7.19922 4.14771 8.19434 3.69141 9.29102C3.23486 10.3867 3 11.5625 3 12.75L3 18C3 18.3984 3.15796 18.7793 3.43945 19.0605C3.7207 19.3418 4.10229 19.5 4.5 19.5L6 19.5C6.39771 19.5 6.7793 19.3418 7.06055 19.0605C7.34204 18.7793 7.5 18.3984 7.5 18L7.5 14.25C7.5 13.8525 7.34204 13.4707 7.06055 13.1895C6.7793 12.9082 6.39771 12.75 6 12.75L3 12.75" stroke="#FA8232" stroke-opacity="1.000000" stroke-width="1.500000" stroke-linejoin="round"/>
</svg>
