<svg width="32.000000" height="32.000000" viewBox="0 0 32 32" fill="none" xmlns="http://www.w3.org/2000/svg" xmlns:xlink="http://www.w3.org/1999/xlink">
	<desc>
			Created with Pixso.
	</desc>
	<defs/>
	<rect id="Duotone/Handshake" width="32.000000" height="32.000000" fill="#FFFFFF" fill-opacity="0"/>
	<g opacity="0.200000">
		<path id="Vector" d="M25 19.1123L20.3999 23.7129C20.2744 23.8301 20.1226 23.915 19.9575 23.9609C19.792 24.0068 19.6177 24.0117 19.4502 23.9756L12.2002 22.1631C12.0674 22.126 11.9443 22.0625 11.8374 21.9756L5 16.6377L9.0752 8.97559L15.4873 7.10059C15.7153 7.03516 15.959 7.05273 16.1748 7.15039L20.5 9.1123L17.9126 9.1123C17.7827 9.1123 17.6538 9.1377 17.5337 9.18652C17.4136 9.23633 17.3047 9.30859 17.2124 9.40039L12.3125 14.2881C12.2124 14.3906 12.1353 14.5137 12.0864 14.6484C12.0371 14.7832 12.0176 14.9268 12.0278 15.0693C12.0386 15.2119 12.0796 15.3516 12.1479 15.4775C12.2163 15.6035 12.311 15.7139 12.4248 15.7998L13.1001 16.3125C13.793 16.8301 14.6353 17.1094 15.5 17.1094C16.3647 17.1094 17.207 16.8301 17.8999 16.3125L19.5 15.1123L25 19.1123Z" fill="#FA8232" fill-opacity="1.000000" fill-rule="nonzero"/>
	</g>
	<path id="Vector" d="M27 16.7627L23 9.1123L26.125 7.5498C26.3574 7.43164 26.627 7.41016 26.875 7.48926C27.123 7.56934 27.3301 7.74414 27.4502 7.97461L30.5249 13.8623C30.5874 13.9805 30.6255 14.1094 30.6372 14.2422C30.6489 14.375 30.6338 14.5088 30.5933 14.6357C30.5522 14.7627 30.4868 14.8809 30.3999 14.9814C30.313 15.083 30.207 15.166 30.0874 15.2246L27 16.7627Z" stroke="#FA8232" stroke-opacity="1.000000" stroke-width="2.000000" stroke-linejoin="round"/>
	<path id="Vector" d="M1.91211 15.0879C1.79346 15.0293 1.6875 14.9473 1.60059 14.8477C1.51416 14.748 1.44824 14.6309 1.40771 14.5049C1.3667 14.3789 1.35156 14.2461 1.36328 14.1143C1.37451 13.9824 1.4126 13.8545 1.47461 13.7373L4.5498 7.84961C4.66992 7.61914 4.87598 7.44336 5.12354 7.3623C5.37109 7.28027 5.64062 7.29883 5.875 7.41211L9 8.97461L5 16.6377L1.91211 15.0879Z" stroke="#FA8232" stroke-opacity="1.000000" stroke-width="2.000000" stroke-linejoin="round"/>
	<path id="Vector" d="M27 16.7627L25 19.1123L20.3999 23.7129C20.2744 23.8301 20.1226 23.915 19.9575 23.9609C19.792 24.0068 19.6177 24.0117 19.4502 23.9756L12.2002 22.1631C12.0674 22.126 11.9443 22.0615 11.8374 21.9756L5 16.6377" stroke="#FA8232" stroke-opacity="1.000000" stroke-width="2.000000" stroke-linejoin="round" stroke-linecap="round"/>
	<path id="Vector" d="M25 19.1123L19.5 15.1123L17.8999 16.3125C17.207 16.8301 16.3652 17.1094 15.5 17.1094C14.6353 17.1094 13.7935 16.8301 13.1001 16.3125L12.4253 15.7998C12.311 15.7129 12.2168 15.6025 12.1479 15.4766C12.0796 15.3506 12.0386 15.2119 12.0283 15.0693C12.0176 14.9258 12.0376 14.7822 12.0864 14.6475C12.1353 14.5127 12.2124 14.3896 12.3125 14.2871L17.2124 9.39941C17.3047 9.30859 17.4141 9.23535 17.5342 9.18652C17.6543 9.13672 17.7827 9.1123 17.9126 9.1123L23 9.1123" stroke="#FA8232" stroke-opacity="1.000000" stroke-width="2.000000" stroke-linejoin="round" stroke-linecap="round"/>
	<path id="Vector" d="M9.0752 8.97559L15.4878 7.10059C15.7153 7.03516 15.959 7.05273 16.1753 7.15039L20.5 9.1123" stroke="#FA8232" stroke-opacity="1.000000" stroke-width="2.000000" stroke-linejoin="round" stroke-linecap="round"/>
	<path id="Vector" d="M14 26.6123L10.2373 25.6621C10.084 25.6279 9.94238 25.5547 9.8252 25.4502L7 23" stroke="#FA8232" stroke-opacity="1.000000" stroke-width="2.000000" stroke-linejoin="round" stroke-linecap="round"/>
</svg>
