<svg width="32.000000" height="32.000000" viewBox="0 0 32 32" fill="none" xmlns="http://www.w3.org/2000/svg" xmlns:xlink="http://www.w3.org/1999/xlink">
	<desc>
			Created with Pixso.
	</desc>
	<defs/>
	<rect id="Duotone/Package" width="32.000000" height="32.000000" fill="#FFFFFF" fill-opacity="0"/>
	<g opacity="0.200000">
		<path id="Vector" d="M4.1377 9.3252C4.04688 9.48047 3.99951 9.65723 4 9.83789L4 22.1631C4.00098 22.3408 4.04883 22.5156 4.13867 22.6689C4.229 22.8223 4.35791 22.9502 4.5127 23.0381L15.5127 29.2256C15.6606 29.3096 15.8291 29.3535 16 29.3506L16.1123 16L4.1377 9.3252Z" fill="#FA8232" fill-opacity="1.000000" fill-rule="nonzero"/>
	</g>
	<path id="Vector" d="M28 9.83789C27.999 9.65918 27.9512 9.48535 27.8613 9.33105C27.771 9.17773 27.6421 9.05078 27.4873 8.96289L16.4873 2.77539C16.3394 2.68945 16.1714 2.64453 16 2.64453C15.8286 2.64453 15.6606 2.68945 15.5127 2.77539L4.5127 8.96289C4.35791 9.05078 4.229 9.17773 4.13867 9.33105C4.04883 9.48535 4.00098 9.65918 4 9.83789L4 22.1631C4.00098 22.3408 4.04883 22.5156 4.13867 22.6689C4.229 22.8223 4.35791 22.9502 4.5127 23.0381L15.5127 29.2256C15.6606 29.3105 15.8286 29.3555 16 29.3555C16.1714 29.3555 16.3394 29.3105 16.4873 29.2256L27.4873 23.0381C27.6421 22.9502 27.771 22.8223 27.8613 22.6689C27.9512 22.5156 27.999 22.3408 28 22.1631L28 9.83789Z" stroke="#FA8232" stroke-opacity="1.000000" stroke-width="2.000000" stroke-linejoin="round"/>
	<path id="Vector" d="M22.125 19.0625L22.125 12.5625L10 5.875" stroke="#FA8232" stroke-opacity="1.000000" stroke-width="2.000000" stroke-linejoin="round" stroke-linecap="round"/>
	<path id="Vector" d="M27.8628 9.3252L16.1128 16L4.1377 9.3252" stroke="#FA8232" stroke-opacity="1.000000" stroke-width="2.000000" stroke-linejoin="round" stroke-linecap="round"/>
	<path id="Vector" d="M16.1123 16L16 29.3496" stroke="#FA8232" stroke-opacity="1.000000" stroke-width="2.000000" stroke-linejoin="round" stroke-linecap="round"/>
</svg>
