<svg width="32.000000" height="32.000000" viewBox="0 0 32 32" fill="none" xmlns="http://www.w3.org/2000/svg" xmlns:xlink="http://www.w3.org/1999/xlink">
	<desc>
			Created with Pixso.
	</desc>
	<defs/>
	<rect id="Duotone/Notebook" width="32.000000" height="32.000000" fill="#FFFFFF" fill-opacity="0"/>
	<g opacity="0.200000">
		<path id="Vector" d="M10 27L6 27C5.73486 27 5.48047 26.8945 5.29297 26.707C5.10547 26.5195 5 26.2656 5 26L5 6C5 5.73438 5.10547 5.48047 5.29297 5.29297C5.48047 5.10547 5.73486 5 6 5L10 5L10 27Z" fill="#2DB324" fill-opacity="1.000000" fill-rule="nonzero"/>
	</g>
	<path id="Vector" d="M14 14L22 14" stroke="#2DB324" stroke-opacity="1.000000" stroke-width="2.000000" stroke-linejoin="round" stroke-linecap="round"/>
	<path id="Vector" d="M14 18L22 18" stroke="#2DB324" stroke-opacity="1.000000" stroke-width="2.000000" stroke-linejoin="round" stroke-linecap="round"/>
	<path id="Vector" d="M26 5C26.5522 5 27 5.44727 27 6L27 26C27 26.5527 26.5522 27 26 27L6 27C5.44775 27 5 26.5527 5 26L5 6C5 5.44727 5.44775 5 6 5L26 5Z" stroke="#2DB324" stroke-opacity="1.000000" stroke-width="2.000000" stroke-linejoin="round"/>
	<path id="Vector" d="M10 5L10 5Z" stroke="#2DB324" stroke-opacity="1.000000" stroke-width="2.000000" stroke-linejoin="round" stroke-linecap="round"/>
</svg>
