<svg width="177.000000" height="48.000000" viewBox="0 0 177 48" fill="none" xmlns="http://www.w3.org/2000/svg" xmlns:xlink="http://www.w3.org/1999/xlink">
	<desc>
			Created with Pixso.
	</desc>
	<defs/>
	<path d="M0 24C0 10.7452 10.7452 0 24 0C37.2548 0 48 10.7452 48 24C48 37.2548 37.2548 48 24 48C10.7452 48 0 37.2548 0 24ZM12 24C12 17.3726 17.3726 12 24 12C30.6274 12 36 17.3726 36 24C36 30.6274 30.6274 36 24 36C17.3726 36 12 30.6274 12 24ZM24 16C19.5817 16 16 19.5817 16 24C16 28.4183 19.5817 32 24 32C28.4183 32 32 28.4183 32 24C32 19.5817 28.4183 16 24 16Z" clip-rule="evenodd" fill="#FFFFFF" fill-opacity="1.000000" fill-rule="evenodd"/>
	<path d="M78.5547 20.875C77.9062 15.5 73.8438 12.4062 68.4531 12.4062C62.3047 12.4062 57.6172 16.75 57.6172 24.3672C57.6172 31.9531 62.2266 36.3203 68.4531 36.3203C74.4219 36.3203 78.0234 32.3516 78.5547 28.0703L73.5781 28.0469C73.1172 30.5312 71.1562 31.9688 68.5312 31.9688C65 31.9688 62.6016 29.3438 62.6016 24.3672C62.6016 19.5234 64.9688 16.7578 68.5703 16.7578C71.2578 16.7578 73.2031 18.3203 73.5781 20.875L78.5547 20.875ZM81.4516 36L96.3501 36L96.3501 31.9453L86.3735 31.9453L86.3735 12.7266L81.4516 12.7266L81.4516 36ZM103.893 12.7266L98.9707 12.7266L98.9707 36L103.893 36L103.893 12.7266ZM127.839 20.875C127.191 15.5 123.128 12.4062 117.738 12.4062C111.589 12.4062 106.902 16.75 106.902 24.3672C106.902 31.9531 111.511 36.3203 117.738 36.3203C123.706 36.3203 127.308 32.3516 127.839 28.0703L122.863 28.0469C122.402 30.5312 120.441 31.9688 117.816 31.9688C114.285 31.9688 111.886 29.3438 111.886 24.3672C111.886 19.5234 114.253 16.7578 117.855 16.7578C120.542 16.7578 122.488 18.3203 122.863 20.875L127.839 20.875ZM152.119 24.3672C152.119 16.75 147.392 12.4062 141.221 12.4062C135.017 12.4062 130.33 16.75 130.33 24.3672C130.33 31.9453 135.017 36.3203 141.221 36.3203C147.392 36.3203 152.119 31.9766 152.119 24.3672ZM147.135 24.3672C147.135 29.2969 144.791 31.9688 141.221 31.9688C137.642 31.9688 135.314 29.2969 135.314 24.3672C135.314 19.4297 137.642 16.7578 141.221 16.7578C144.791 16.7578 147.135 19.4297 147.135 24.3672ZM174.588 12.7266L169.689 12.7266L169.689 27.3672L169.478 27.3672L159.439 12.7266L155.119 12.7266L155.119 36L160.041 36L160.041 21.3516L160.213 21.3516L170.338 36L174.588 36L174.588 12.7266Z" fill="#FFFFFF" fill-opacity="1.000000" fill-rule="evenodd"/>
</svg>
