<svg width="72.000000" height="72.000000" viewBox="0 0 72 72" fill="none" xmlns="http://www.w3.org/2000/svg" xmlns:xlink="http://www.w3.org/1999/xlink">
	<desc>
			Created with Pixso.
	</desc>
	<defs>
		<clipPath id="clip27_11904">
			<rect width="72.000000" height="72.000000" fill="white" fill-opacity="0"/>
		</clipPath>
	</defs>
	<g clip-path="url(#clip27_11904)">
		<path d="M44.6636 46.9785C40.4954 50.0605 34.4324 51.7026 29.2031 51.7026C21.8771 51.7026 15.3089 48.9995 10.307 44.5024C9.92804 44.1489 10.2565 43.6689 10.7365 43.9468C16.1173 47.0796 22.7613 48.9487 29.6326 48.9487C34.2556 48.9487 39.3585 47.9888 44.0573 45.9932C44.7646 45.7153 45.3457 46.4731 44.6636 46.9785Z" fill="#FFFFFF" fill-opacity="1.000000" fill-rule="evenodd"/>
		<path d="M46.4064 44.9824C45.8759 44.3008 42.8698 44.6543 41.5308 44.8311C41.1266 44.8813 41.0508 44.5278 41.4298 44.2754C43.8297 42.5825 47.7453 43.0879 48.2 43.6436C48.6547 44.1997 48.0737 48.1406 45.8254 50.0098C45.4717 50.2876 45.1433 50.1362 45.2949 49.7573C45.8001 48.4941 46.937 45.6899 46.4064 44.9824Z" fill="#FFFFFF" fill-opacity="1.000000" fill-rule="evenodd"/>
		<path d="M41.6066 32.4019L41.6066 30.7598C41.6066 30.5073 41.7834 30.356 42.0108 30.356L49.3369 30.356C49.5642 30.356 49.7663 30.5327 49.7663 30.7598L49.7663 32.1494C49.7663 32.377 49.5642 32.6797 49.2105 33.1851L45.4212 38.5913C46.8359 38.5659 48.3264 38.7681 49.5895 39.4756C49.8673 39.627 49.9431 39.8799 49.9684 40.1069L49.9684 41.8501C49.9684 42.1025 49.7158 42.3804 49.4379 42.229C47.1896 41.0415 44.1833 40.9155 41.7077 42.2544C41.4551 42.3804 41.1772 42.1279 41.1772 41.8755L41.1772 40.208C41.1772 39.9556 41.1772 39.5005 41.4551 39.0967L45.8506 32.8062L42.0361 32.8062C41.8087 32.8062 41.6066 32.6294 41.6066 32.4019ZM14.9046 42.5825L12.6816 42.5825C12.4795 42.5576 12.3026 42.4058 12.2773 42.2036L12.2773 30.7852C12.2773 30.5576 12.4795 30.3809 12.7068 30.3809L14.7783 30.3809C15.0057 30.3809 15.1572 30.5576 15.1825 30.7598L15.1825 32.2505L15.233 32.2505C15.7635 30.8105 16.7993 30.1284 18.1635 30.1284C19.5529 30.1284 20.437 30.8105 21.0433 32.2505C21.5738 30.8105 22.8116 30.1284 24.1253 30.1284C25.06 30.1284 26.0704 30.5073 26.702 31.3916C27.4094 32.3516 27.2578 33.7407 27.2578 34.9785L27.2578 42.2036C27.2578 42.4312 27.0557 42.6079 26.8283 42.6079L24.6305 42.6079C24.4031 42.5825 24.2263 42.4058 24.2263 42.2036L24.2263 36.1406C24.2263 35.6606 24.2769 34.4482 24.1758 33.9937C23.999 33.2358 23.519 33.0083 22.8622 33.0083C22.3317 33.0083 21.7507 33.3618 21.5233 33.9429C21.2959 34.5239 21.3212 35.4839 21.3212 36.1406L21.3212 42.2036C21.3212 42.4312 21.1191 42.6079 20.8917 42.6079L18.6687 42.6079C18.4413 42.5825 18.2645 42.4058 18.2645 42.2036L18.2645 36.1406C18.2645 34.8779 18.4666 32.9829 16.9003 32.9829C15.3088 32.9829 15.3593 34.8018 15.3593 36.1406L15.3593 42.2036C15.3341 42.4058 15.1572 42.5825 14.9046 42.5825ZM56.0818 30.1284C59.3911 30.1284 61.1848 32.958 61.1848 36.5703C61.1848 40.0566 59.2143 42.8354 56.0818 42.8354C52.8483 42.8354 51.0799 40.0059 51.0799 36.4692C51.0546 32.9072 52.8483 30.1284 56.0818 30.1284ZM56.0818 32.4775C54.4398 32.4775 54.3387 34.7261 54.3387 36.1157C54.3387 37.5049 54.3135 40.4858 56.0565 40.4858C57.7744 40.4858 57.8754 38.0859 57.8754 36.6206C57.8754 35.6606 57.8249 34.4985 57.547 33.5894C57.2944 32.7808 56.7891 32.4775 56.0818 32.4775ZM65.454 42.5825L63.231 42.5825C63.0036 42.5576 62.8268 42.3804 62.8268 42.1787L62.8268 30.7349C62.8521 30.5327 63.0289 30.356 63.2562 30.356L65.3277 30.356C65.5298 30.356 65.6814 30.5073 65.7319 30.6841L65.7319 32.4272L65.7825 32.4272C66.414 30.8608 67.2729 30.1284 68.8139 30.1284C69.7991 30.1284 70.7843 30.4819 71.4159 31.4673C71.9969 32.377 71.9969 33.918 71.9969 35.0293L71.9969 42.229C71.9717 42.4312 71.7948 42.5825 71.5674 42.5825L69.3444 42.5825C69.1423 42.5576 68.9655 42.4058 68.9402 42.229L68.9402 36.0146C68.9402 34.7515 69.0918 32.9326 67.5508 32.9326C67.0203 32.9326 66.515 33.2861 66.2625 33.8418C65.9593 34.5493 65.9088 35.2314 65.9088 36.0146L65.9088 42.1787C65.8835 42.4058 65.6814 42.5825 65.454 42.5825ZM35.7711 37.126C35.7711 37.9849 35.7964 38.7178 35.3669 39.5005C35.0132 40.1323 34.4575 40.5112 33.8259 40.5112C32.967 40.5112 32.4618 39.8545 32.4618 38.8945C32.4618 36.9995 34.1543 36.646 35.7711 36.646L35.7711 37.126ZM38.0194 42.5576C37.8679 42.6836 37.6658 42.709 37.4889 42.6079C36.7563 42.0015 36.6047 41.6987 36.2006 41.1177C34.988 42.3555 34.1038 42.7344 32.5375 42.7344C30.6682 42.7344 29.2029 41.5723 29.2029 39.2734C29.2029 37.4546 30.1882 36.2417 31.5776 35.6357C32.7902 35.105 34.4827 35.0039 35.7711 34.8525L35.7711 34.5747C35.7711 34.0439 35.8216 33.4126 35.4932 32.958C35.2153 32.5537 34.7101 32.377 34.2554 32.377C33.3965 32.377 32.6386 32.8062 32.4618 33.7158C32.4113 33.918 32.2849 34.1196 32.0828 34.1196L29.9355 33.8926C29.7587 33.8418 29.5566 33.7158 29.6072 33.438C30.1124 30.8105 32.4618 30.0273 34.5838 30.0273C35.67 30.0273 37.0847 30.3052 37.9437 31.1387C39.0299 32.1494 38.9288 33.5137 38.9288 34.9785L38.9288 38.4395C38.9288 39.4756 39.3583 39.9302 39.7625 40.5112C39.9141 40.7134 39.9393 40.9658 39.7625 41.0923C39.2825 41.4712 38.4741 42.1787 38.0194 42.5576ZM6.59338 37.126C6.59338 37.9849 6.61865 38.7178 6.18921 39.5005C5.83551 40.1323 5.27979 40.5112 4.64819 40.5112C3.78931 40.5112 3.28406 39.8545 3.28406 38.8945C3.28406 36.9995 4.97662 36.646 6.59338 36.646L6.59338 37.126ZM8.81647 42.5576C8.66492 42.6836 8.46277 42.709 8.28595 42.6079C7.55334 42.0015 7.40179 41.6987 6.99762 41.1177C5.78503 42.3555 4.90082 42.7344 3.33459 42.7344C1.46521 42.7344 0 41.5723 0 39.2734C0 37.4546 0.985229 36.2417 2.37463 35.6357C3.58722 35.105 5.27979 35.0039 6.56812 34.8525L6.56812 34.5747C6.56812 34.0439 6.61865 33.4126 6.29028 32.958C6.01239 32.5537 5.50714 32.377 5.05243 32.377C4.19348 32.377 3.43567 32.8062 3.25879 33.7158C3.20825 33.918 3.08197 34.1196 2.87988 34.1196L0.732605 33.8926C0.555786 33.8418 0.353699 33.7158 0.404175 33.438C0.909424 30.8105 3.25879 30.0273 5.3808 30.0273C6.4671 30.0273 7.88177 30.3052 8.74066 31.1387C9.82697 32.1494 9.72589 33.5137 9.72589 34.9785L9.72589 38.4395C9.72589 39.4756 10.1553 39.9302 10.5596 40.5112C10.7111 40.7134 10.7364 40.9658 10.5596 41.0923C10.0796 41.4712 9.27118 42.1787 8.81647 42.5576Z" fill="#FFFFFF" fill-opacity="1.000000" fill-rule="evenodd"/>
	</g>
</svg>
