<svg width="72.000366" height="23.479492" viewBox="0 0 72.0004 23.4795" fill="none" xmlns="http://www.w3.org/2000/svg" xmlns:xlink="http://www.w3.org/1999/xlink">
	<desc>
			Created with Pixso.
	</desc>
	<defs/>
	<path id="Vector" d="M8.86749 0L9.50775 0C11.7305 0.0483398 13.9171 0.941406 15.4876 2.52246C14.9077 3.11377 14.3158 3.68115 13.748 4.27246C12.8661 3.47607 11.803 2.86035 10.6433 2.64307C8.92786 2.28125 7.07953 2.60693 5.64197 3.58447C4.07147 4.61035 3.00842 6.34814 2.77887 8.20703C2.52521 10.0415 3.04468 11.9722 4.2406 13.3965C5.38824 14.7847 7.13995 15.6533 8.95203 15.7139C10.6433 15.8105 12.407 15.2915 13.6393 14.1084C14.6057 13.2759 15.0527 12.0088 15.1977 10.7773C13.1923 10.7773 11.187 10.7896 9.18158 10.7773L9.18158 8.2915L17.6259 8.2915C18.0607 10.9585 17.4326 13.9639 15.403 15.8706C14.05 17.2222 12.1776 18.019 10.2688 18.1758C8.42047 18.3569 6.51178 18.0068 4.86884 17.1138C2.89966 16.064 1.32922 14.2896 0.55603 12.2017C-0.168762 10.2827 -0.180847 8.11035 0.495667 6.1792C1.11176 4.41748 2.29565 2.86035 3.81781 1.77393C5.27954 0.700195 7.05536 0.108398 8.86749 0Z" fill="#FFFFFF" fill-opacity="1.000000" fill-rule="nonzero"/>
	<path id="Vector" d="M57.3104 0.627441L59.8956 0.627441L59.8956 17.8618C59.0379 17.8618 58.1682 17.874 57.3104 17.8496C57.3225 12.1172 57.3104 6.37207 57.3104 0.627441Z" fill="#FFFFFF" fill-opacity="1.000000" fill-rule="nonzero"/>
	<path id="Vector" d="M23.3762 6.60156C24.9708 6.2998 26.6984 6.6377 28.0151 7.59131C29.2111 8.43604 30.0447 9.76367 30.2983 11.2119C30.6245 12.8896 30.2138 14.7241 29.1265 16.0518C27.9547 17.5361 26.0339 18.3325 24.1614 18.2119C22.446 18.1152 20.7789 17.2588 19.7641 15.8584C18.6165 14.314 18.3386 12.1895 18.9668 10.3794C19.595 8.43604 21.3708 6.95166 23.3762 6.60156ZM23.7386 8.89502C23.0862 9.06396 22.4822 9.43799 22.0473 9.96875C20.8755 11.3691 20.948 13.6499 22.2406 14.9536C22.9775 15.7017 24.0889 16.0518 25.1158 15.8467C26.0701 15.6777 26.9037 15.0381 27.3628 14.1929C28.1601 12.7568 27.9305 10.7773 26.7104 9.65527C25.9252 8.93115 24.7775 8.62939 23.7386 8.89502Z" fill="#FFFFFF" fill-opacity="1.000000" fill-rule="nonzero"/>
	<path id="Vector" d="M36.1816 6.60156C38.0057 6.25146 39.999 6.7583 41.3641 8.0376C43.587 10.0293 43.8286 13.7583 41.9319 16.0518C40.7843 17.5 38.9239 18.2964 37.0876 18.2119C35.3359 18.1636 33.6085 17.2949 32.5695 15.8584C31.3977 14.2773 31.144 12.105 31.8085 10.2583C32.4729 8.37598 34.2125 6.93945 36.1816 6.60156ZM36.544 8.89453C35.8917 9.06348 35.2877 9.43799 34.8527 9.95654C33.693 11.3325 33.7413 13.5776 34.9856 14.8931C35.7225 15.6772 36.8702 16.0635 37.9333 15.8462C38.8755 15.6655 39.7212 15.0376 40.1802 14.1929C40.9655 12.7446 40.736 10.7656 39.5037 9.64307C38.7185 8.91895 37.5709 8.62939 36.544 8.89453Z" fill="#FFFFFF" fill-opacity="1.000000" fill-rule="nonzero"/>
	<path id="Vector" d="M47.042 7.30127C48.4312 6.43262 50.2795 6.19092 51.7775 6.93945C52.2487 7.14453 52.6353 7.49463 53.0098 7.84473C53.0219 7.51855 53.0098 7.18066 53.0219 6.84277C53.8312 6.85498 54.6406 6.84277 55.4621 6.85498L55.4621 17.4995C55.45 19.105 55.0393 20.8066 53.8796 21.9775C52.6111 23.2686 50.6661 23.667 48.9145 23.4014C47.042 23.124 45.4111 21.7603 44.6863 20.0342C45.4111 19.6841 46.1722 19.4067 46.9211 19.0806C47.344 20.0703 48.2017 20.915 49.2769 21.1084C50.3521 21.3013 51.5963 21.0361 52.297 20.1431C53.046 19.2256 53.046 17.9702 53.0098 16.8481C52.454 17.3911 51.8138 17.874 51.0406 18.0547C49.3615 18.5254 47.5131 17.9463 46.2205 16.812C44.9158 15.6772 44.1426 13.9272 44.2151 12.1895C44.2514 10.2222 45.3628 8.32715 47.042 7.30127ZM49.5427 8.84619C48.8057 8.9668 48.1171 9.37744 47.646 9.94482C46.5104 11.2964 46.5104 13.4565 47.6581 14.7842C48.3104 15.5688 49.3615 16.0034 50.3762 15.8945C51.3306 15.7979 52.2125 15.1948 52.6836 14.3618C53.4809 12.9497 53.348 11.0308 52.2728 9.7998C51.6084 9.03955 50.5453 8.66504 49.5427 8.84619Z" fill="#FFFFFF" fill-opacity="1.000000" fill-rule="nonzero"/>
	<path id="Vector" d="M63.0004 7.91699C64.45 6.56543 66.6849 6.10693 68.5453 6.81885C70.3091 7.48291 71.4326 9.16016 72.0004 10.8862C69.3789 11.9722 66.7695 13.0464 64.148 14.1328C64.5104 14.8208 65.0662 15.4482 65.8151 15.7017C66.8661 16.0757 68.1225 15.9429 69.0044 15.2432C69.3547 14.9775 69.6326 14.6274 69.8984 14.2896C70.5628 14.7363 71.2272 15.1704 71.8917 15.6172C70.9494 17.0293 69.3668 18.019 67.6635 18.1758C65.7789 18.4053 63.7735 17.6812 62.5534 16.2085C60.548 13.8911 60.7413 10.0054 63.0004 7.91699ZM64.293 10.1499C63.8823 10.7412 63.7131 11.4653 63.7252 12.1777C65.4769 11.4536 67.2286 10.7295 68.9802 9.99316C68.6903 9.31738 67.9896 8.90674 67.2769 8.79834C66.1292 8.59326 64.9332 9.2085 64.293 10.1499Z" fill="#FFFFFF" fill-opacity="1.000000" fill-rule="nonzero"/>
</svg>
