<svg width="71.935974" height="13.165527" viewBox="0 0 71.936 13.1655" fill="none" xmlns="http://www.w3.org/2000/svg" xmlns:xlink="http://www.w3.org/1999/xlink">
	<desc>
			Created with Pixso.
	</desc>
	<defs/>
	<path id="Vector" d="M7.30536 4.86377C7.30536 6.50342 6.51099 7.61377 4.49927 7.61377L3.86359 7.61377L3.86359 2.39258C4.08954 2.37988 4.3006 2.37988 4.49927 2.37988C6.40411 2.37939 7.30536 3.27832 7.30536 4.86377ZM5.24036 9.88721C8.83997 9.88721 11.1158 8.03613 11.1158 4.81152C11.1157 1.26855 8.68091 0 4.711 0C3.17572 0 1.323 0.105469 0 0.26416L0 12.9019L3.86371 12.9019L3.86371 9.88721L5.24036 9.88721ZM57.0084 4.86377C57.0084 6.50342 56.2151 7.61377 54.2028 7.61377L53.5693 7.61377L53.5693 2.39258C53.7933 2.37988 54.0047 2.37988 54.2028 2.37988C56.1078 2.37939 57.0084 3.27832 57.0084 4.86377ZM54.9457 9.88721C58.5425 9.88721 60.8196 8.03613 60.8196 4.81152C60.8196 1.26855 58.3852 0 54.4149 0C52.88 0 51.0262 0.105469 49.7031 0.26416L49.7031 12.9019L53.5688 12.9019L53.5688 9.88721L54.9457 9.88721ZM65.8475 3.48926C65.8475 2.80225 66.5364 2.48438 67.6469 2.48438C68.8648 2.48438 70.1891 2.74902 71.0882 3.12061L70.771 0.370117C69.7646 0.158691 68.8648 0 67.2244 0C64.1011 0 61.9844 1.22998 61.9844 3.80762C61.9844 8.24805 68.0197 7.34961 68.0197 9.41162C68.0197 10.2041 67.4366 10.627 66.0067 10.627C64.7382 10.627 62.7783 10.2041 61.614 9.62256L62.0386 12.5317C63.202 12.9546 64.79 13.1655 66.0609 13.1655C69.2888 13.1655 71.936 12.1079 71.936 8.93457C71.936 4.70654 65.8475 5.49854 65.8475 3.48926ZM46.7929 0.26416L42.9291 0.26416L42.9291 12.9019L46.7929 12.9019L46.7929 0.26416ZM31.1244 0.26416L27.2603 0.26416L27.2603 12.9019L31.1244 12.9019L31.1244 0.26416ZM37.8468 10.3628L37.8468 0.26416L33.9827 0.26416L33.9827 12.9019L40.9705 12.9019L41.5522 10.3628L37.8468 10.3628ZM24.4022 0.26416L20.538 0.26416L20.538 5.28711L16.5151 5.28711L16.5151 0.26416L12.6503 0.26416L12.6503 12.9019L16.5149 12.9019L16.5149 7.93066L20.5379 7.93066L20.5379 12.9019L24.402 12.9019L24.4022 0.26416Z" fill="#FFFFFF" fill-opacity="1.000000" fill-rule="nonzero"/>
</svg>
