<svg width="72.000366" height="23.972656" viewBox="0 0 72.0004 23.9727" fill="none" xmlns="http://www.w3.org/2000/svg" xmlns:xlink="http://www.w3.org/1999/xlink">
	<desc>
			Created with Pixso.
	</desc>
	<defs/>
	<path id="Vector" d="M62.9653 14.6782C69.0785 11.6875 72.4501 8.28271 71.9519 5.46289C70.9036 -0.463379 52.9415 -1.41797 34.4047 1.87305C25.9216 3.37939 17.8085 5.64014 12.316 7.88232C12.6077 7.86377 12.8116 7.87744 12.8116 7.87744C15.1858 7.94287 15.0406 9.41895 15.0406 9.41895L15.0444 10.3208L13.1517 10.3208L13.1517 9.7085C13.1517 9.27441 12.6228 9.24561 12.6228 9.24561C12.218 9.24561 12.1234 9.52002 12.1234 9.52002C11.8993 9.93994 12.2828 10.3018 12.2828 10.3018C12.4781 10.5195 13.4623 10.9751 13.4623 10.9751C13.781 11.0981 14.2947 11.4165 14.2947 11.4165C15.2574 11.9956 15.1702 13.0952 15.1702 13.0952L15.1702 13.8198C15.0547 15.6147 12.5793 15.564 12.5793 15.564C9.98779 15.564 10.0443 13.8638 10.0443 13.8638L10.0443 12.9751L12.0608 12.9751L12.0608 13.5869C12.0608 14.1084 12.5642 14.1313 12.5642 14.1313C13.1144 14.1528 13.1611 13.6206 13.1611 13.6206C13.2361 13.103 12.6659 12.7773 12.6659 12.7773C12.162 12.5161 11.66 12.251 11.1603 11.9814C10.6969 11.6777 10.5089 11.4023 10.5089 11.4023C10.1759 10.9829 10.198 10.3311 10.198 10.3311L10.198 9.7666C10.198 8.98486 10.4081 8.76074 10.4081 8.76074C10.4169 8.74365 10.426 8.72705 10.4355 8.71094C3.66455 11.8398 -0.480591 15.4668 0.0446777 18.4487C1.11023 24.498 18.0498 25.2915 37.9733 22.2231C47.1471 20.8105 55.1307 18.21 61.1726 15.5166C61.1296 15.5186 61.0837 15.5186 61.0399 15.5186C61.0399 15.5186 58.5979 15.7163 58.54 13.7476L58.54 9.93994C58.54 9.93994 58.2361 7.84131 60.9719 7.84131C60.9719 7.84131 62.7532 7.78369 63.2235 8.84033C63.2235 8.84033 63.4553 9.12305 63.3939 10.291L61.4967 10.291L61.4967 9.69287C61.4967 9.69287 61.4934 9.20947 61.0013 9.20947C61.0013 9.20947 60.4868 9.23096 60.4868 9.63623L60.4868 13.5737C60.4868 13.5737 60.4651 14.1021 61.0444 14.1021C61.0444 14.1021 61.5197 14.0913 61.5197 13.5356L61.5197 12.397L61.0018 12.397L61.0018 11.3369L63.439 11.3369L63.439 13.5737C63.439 13.5737 63.4324 14.0439 63.2374 14.3188C63.2382 14.3193 63.0408 14.6221 62.9653 14.6782ZM56.0186 15.3169L53.7838 15.3169L51.7908 10.9199L51.7068 10.9199L51.8195 15.3164L49.944 15.3164L49.944 8.12646L52.2476 8.12646L54.1726 12.4878L54.2549 12.4878L54.1198 8.12549L56.0186 8.12549L56.0186 15.3169ZM44.2671 13.5308C44.2671 14.1401 44.8456 14.1094 44.8456 14.1094C45.3961 14.1094 45.3679 13.5156 45.3679 13.5156L45.3679 8.09521L47.3778 8.09521L47.3778 13.5815C47.3778 15.5581 44.8751 15.5283 44.8751 15.5283C41.9939 15.5283 42.2048 13.4873 42.2048 13.4873L42.2048 8.09521L44.2606 8.09521L44.2671 13.5308ZM37.9508 10.3208L37.9508 9.7085C37.9508 9.27393 37.4227 9.24561 37.4227 9.24561C37.0172 9.24561 36.9225 9.52002 36.9225 9.52002C36.6984 9.93994 37.0826 10.3018 37.0826 10.3018C37.2781 10.5186 38.2621 10.9751 38.2621 10.9751C38.5804 11.0977 39.0942 11.4165 39.0942 11.4165C40.0569 11.9956 39.9705 13.0952 39.9705 13.0952L39.9705 13.8198C39.8545 15.6147 37.3798 15.564 37.3798 15.564C34.7877 15.564 34.8442 13.8638 34.8442 13.8638L34.8442 12.9751L36.8611 12.9751L36.8611 13.5869C36.8611 14.1084 37.3645 14.1313 37.3645 14.1313C37.9152 14.1528 37.9606 13.6206 37.9606 13.6206C38.0369 13.103 37.4662 12.7773 37.4662 12.7773C36.9623 12.5161 36.4604 12.2505 35.9606 11.9814C35.4968 11.6777 35.3092 11.4023 35.3092 11.4023C34.9766 10.9824 34.9974 10.3306 34.9974 10.3306L34.9974 9.76611C34.9974 8.98438 35.2076 8.76025 35.2076 8.76025C35.7435 7.75439 37.6107 7.87695 37.6107 7.87695C39.9849 7.94238 39.8398 9.41895 39.8398 9.41895L39.8439 10.3208L37.9508 10.3208ZM28.0192 8.12451L28.625 12.0596L28.7729 12.0596L29.4066 8.125L32.537 8.125L32.7394 15.3154L30.8573 15.3154L30.8126 9.89941L30.6829 9.89941L29.7025 15.3145L27.734 15.3145L26.7413 9.89746L26.5942 9.89746L26.5718 15.3159L24.7003 15.3159L24.8585 8.12451L28.0192 8.12451ZM20.6758 15.3076L19.9384 9.7334L19.7732 9.7334L19.0354 15.3076L17.0211 15.3076L18.2656 8.11816L21.4459 8.11816L22.6913 15.3076L20.6758 15.3076Z" fill="#FFFFFF" fill-opacity="1.000000" fill-rule="evenodd"/>
</svg>
