<svg width="70.941040" height="10.506836" viewBox="0 0 70.941 10.5068" fill="none" xmlns="http://www.w3.org/2000/svg" xmlns:xlink="http://www.w3.org/1999/xlink">
	<desc>
			Created with Pixso.
	</desc>
	<defs/>
	<path id="Vector" d="M5.9895 10.4292L3.21204 10.4292L3.21204 2.46777L0 2.46777L0 0.0776367L9.37256 0.0776367L9.37256 2.46777L5.9895 2.46777L5.9895 10.4292ZM10.6866 2.80908C11.1058 0.372559 13.2782 0.015625 15.358 0.015625C18.9275 0.015625 20.1844 0.900391 20.1844 4.64014C20.1844 8.47363 20.0914 10.5068 15.4357 10.5068C13.589 10.5068 11.3851 10.3672 10.7644 8.24121C10.5626 7.54248 10.547 6.81348 10.547 6.08398L10.547 5.32324C10.547 4.50049 10.547 3.63184 10.6866 2.80908ZM13.387 5.89746C13.387 7.35645 13.418 8.13232 15.1406 8.13232C17.0341 8.13232 17.3287 7.6665 17.3287 5.89746C17.3287 5.40088 17.3445 4.88867 17.3445 4.39209C17.3445 3.01074 17.1271 2.39014 15.6375 2.39014C13.465 2.39014 13.4336 2.60742 13.3873 5.27637L13.3873 5.89746L13.387 5.89746ZM28.2993 3.30566C28.2993 2.25 27.9265 2.11084 26.9337 2.11084L26.6543 2.11084C25.9248 2.11084 25.1489 2.1416 25.1489 3.05713C25.1489 3.69385 25.3353 3.98877 26.0024 4.03516C28.4077 4.23682 31.2479 3.75586 31.2479 7.09277C31.2479 7.97754 31.2479 9.09473 30.5184 9.71533C29.6646 10.4292 28.4854 10.4912 27.3992 10.4912L26.7163 10.4912C23.8607 10.4912 22.3707 10.3672 22.3707 7.07666L25.0089 7.07666C25.0089 7.85254 25.1953 8.31836 26.0641 8.31836L27.259 8.31836C27.9575 8.31836 28.516 8.2251 28.516 7.29395C28.516 6.37842 27.9729 6.37842 27.1967 6.33203C24.2017 6.13037 22.386 6.40918 22.386 2.96436C22.386 1.16406 23.0999 0.217285 24.9465 0.0776367C25.5516 0.0307617 26.1567 0 26.7622 0C29.1677 0 30.9525 0.046875 30.9525 2.97998C30.9525 3.08887 30.9368 3.19727 30.9368 3.30615L28.2993 3.30615L28.2993 3.30566ZM42.5715 10.4292L39.7932 10.4292L39.7932 6.36328L36.1927 6.36328L36.1927 10.4292L33.4148 10.4292L33.4148 0.0776367L36.1927 0.0776367L36.1927 3.98877L39.7932 3.98877L39.7932 0.0776367L42.5715 0.0776367L42.5715 10.4292ZM47.9955 10.4292L45.218 10.4292L45.218 0.0776367L47.9955 0.0776367L47.9955 10.4292ZM50.6599 0.0776367L56.2935 0.0776367C58.1713 0.0776367 59.3818 0.589844 59.3818 2.71582C59.3818 3.91064 59.2732 4.87305 57.7682 5.12158L57.7682 5.21387C59.1652 5.33838 59.5525 6.0835 59.5525 7.44873C59.5525 9.77686 58.7771 10.4287 56.3402 10.4287L50.6599 10.4287L50.6599 0.0776367ZM55.2073 4.22119C55.9681 4.19043 56.6349 4.28369 56.6349 3.33691C56.6349 2.5918 56.4336 2.35889 55.6887 2.35889L53.4382 2.35889L53.4382 4.22119L55.2073 4.22119ZM55.2854 8.14795C56.1542 8.14795 56.7903 8.13232 56.7903 7.12354C56.7903 6.16113 56.3402 6.13037 55.4713 6.13037L53.4382 6.13037L53.4382 8.14795L55.2854 8.14795ZM68.1165 10.4292L70.941 10.4292L67.7899 0.0776367L63.5848 0.0776367L60.4803 10.4292L63.3674 10.4292L63.9591 8.3501L67.5162 8.3501L68.1165 10.4292ZM64.5294 6.34766L65.7266 2.1416L66.9398 6.34766L64.5294 6.34766Z" fill="#FFFFFF" fill-opacity="1.000000" fill-rule="evenodd"/>
</svg>
