<svg width="26.953979" height="32.000488" viewBox="0 0 26.954 32.0005" fill="none" xmlns="http://www.w3.org/2000/svg" xmlns:xlink="http://www.w3.org/1999/xlink">
	<desc>
			Created with Pixso.
	</desc>
	<defs/>
	<path id="Vector" d="M26.3893 24.938C25.9226 26.0249 25.3463 27.0615 24.6693 28.0312C23.764 29.3213 23.0233 30.2139 22.4526 30.71C21.568 31.5234 20.6194 31.9404 19.604 31.9639C18.8754 31.9639 17.9967 31.7568 16.9734 31.3359C15.9467 30.9175 15.0033 30.7095 14.1406 30.7095C13.236 30.7095 12.266 30.9175 11.228 31.3359C10.1887 31.7568 9.35132 31.9761 8.7113 31.9976C7.73804 32.0396 6.76733 31.6108 5.79797 30.71C5.18005 30.1699 4.40735 29.2461 3.48071 27.9365C2.48669 26.5381 1.66931 24.9165 1.0293 23.0674C0.343994 21.0708 0 19.1367 0 17.2646C0 15.1201 0.463379 13.2705 1.39136 11.7207C2.12134 10.4751 3.09131 9.49414 4.30603 8.77246C5.49768 8.05957 6.8573 7.67578 8.24597 7.66064C9.01929 7.66064 10.0333 7.8999 11.2939 8.37012C12.5507 8.84131 13.3573 9.08057 13.7113 9.08057C13.9753 9.08057 14.8719 8.80078 16.3914 8.24316C17.8286 7.72607 19.0414 7.51221 20.0347 7.59668C22.7273 7.81396 24.75 8.87549 26.0946 10.7871C23.6874 12.2461 22.496 14.2896 22.52 16.9106C22.5414 18.9526 23.282 20.6519 24.738 22.0005C25.3979 22.6274 26.1346 23.1113 26.954 23.4546C26.7822 23.9551 26.5939 24.4497 26.3893 24.938ZM20.2147 0.640625C20.2147 2.24072 19.63 3.73535 18.4647 5.11816C17.058 6.7627 15.3573 7.71289 13.5127 7.5625C13.4879 7.36133 13.4755 7.15869 13.4753 6.95605C13.4753 5.41992 14.144 3.77588 15.332 2.43115C15.9253 1.75049 16.6787 1.18457 17.5934 0.733398C18.5067 0.288574 19.3694 0.0424805 20.1813 0C20.2047 0.213867 20.2147 0.428223 20.2147 0.640137L20.2147 0.640625Z" fill="#FFFFFF" fill-opacity="1.000000" fill-rule="nonzero"/>
</svg>
