<svg width="41.603516" height="31.912109" viewBox="0 0 41.6035 31.9121" fill="none" xmlns="http://www.w3.org/2000/svg" xmlns:xlink="http://www.w3.org/1999/xlink">
	<desc>
			Created with Pixso.
	</desc>
	<defs/>
	<path id="Vector" d="M3.69336 29.1602C1.29102 26.6094 0 23.7461 0 19.1035C0 10.9375 5.73242 3.61719 14.0703 0L16.1543 3.21484C8.37305 7.42383 6.85156 12.8867 6.24414 16.3301C7.49805 15.6816 9.13672 15.4551 10.7461 15.6035C14.9551 15.9941 18.2734 19.4492 18.2734 23.7461C18.2734 25.9121 17.4121 27.9883 15.8809 29.5195C14.3496 31.0508 12.2715 31.9121 10.1055 31.9121C7.60156 31.9121 5.20898 30.7695 3.69336 29.1602ZM27.0273 29.1602C24.623 26.6094 23.334 23.7461 23.334 19.1035C23.334 10.9375 29.0664 3.61719 37.4043 0L39.4863 3.21484C31.7051 7.42383 30.1836 12.8867 29.5781 16.3301C30.8301 15.6816 32.4707 15.4551 34.0781 15.6035C38.2871 15.9941 41.6035 19.4492 41.6035 23.7461C41.6035 25.9121 40.7422 27.9883 39.2109 29.5195C37.6797 31.0508 35.6035 31.9121 33.4375 31.9121C30.9336 31.9121 28.5391 30.7695 27.0254 29.1602L27.0273 29.1602Z" fill="#FA8232" fill-opacity="1.000000" fill-rule="nonzero"/>
</svg>
